<svg width="52" height="69" viewBox="0 0 52 69" fill="none" xmlns="http://www.w3.org/2000/svg">
<path fill-rule="evenodd" clip-rule="evenodd" d="M13.3879 3.94699C21.3329 -0.371806 31.0989 -0.296307 38.9689 4.14479C46.7619 8.67629 51.4989 16.7637 51.4549 25.464C51.2729 34.106 46.1949 42.231 39.8459 48.511C36.1819 52.152 32.0829 55.372 27.6329 58.104C27.1739 58.352 26.6719 58.518 26.1509 58.594C25.6499 58.574 25.1619 58.436 24.7309 58.191C17.9369 54.085 11.9759 48.844 7.13587 42.72C3.08587 37.608 0.784902 31.433 0.545902 25.031C0.540902 16.3149 5.44288 8.26589 13.3879 3.94699ZM17.9789 28.639C19.3159 31.721 22.4699 33.732 25.9699 33.732C28.2629 33.747 30.4669 32.888 32.0909 31.346C33.7149 29.803 34.6239 27.706 34.6159 25.521C34.6279 22.186 32.5299 19.1728 29.2999 17.8884C26.0699 16.604 22.3459 17.3018 19.8669 19.656C17.3879 22.0102 16.6429 25.556 17.9789 28.639Z" fill="#316DC2"/>
<path d="M44.1824 65.398C44.1824 67.277 36.0414 68.8 26.0004 68.8C15.9584 68.8 7.81836 67.277 7.81836 65.398C7.81836 63.519 15.9584 61.996 26.0004 61.996C36.0414 61.996 44.1824 63.519 44.1824 65.398Z" fill="#316DC2"/>
</svg>
